# xmcd
#
# Track frame offsets:
#	150
#	31124
#	49778
#	81501
#	118802
#	159564
#	187827
#	219020
#	266189
#	293350
#
# Disc length: 4524 seconds
# Revision: 0
# Processed by: cddbd v1.5.2PL0 Copyright (c) Steve Scherf et al.
# Submitted via: dBpowerAMP V12.0
#
DISCID=8211aa0a
DTITLE=Ingid Noll - Hab und Gier CD2
DYEAR=1900
DGENRE=
TTITLE0=Das dritte Testament
TTITLE1=Das dritte Testament
TTITLE2=Der Hexenschuss
TTITLE3=Der Hexenschuss
TTITLE4=Die Bernsteinkette
TTITLE5=Die Bernsteinkette
TTITLE6=Der Heiratsantrag
TTITLE7=Der Heiratsantrag
TTITLE8=Unter dem Dach
TTITLE9=Unter dem Dach
EXTD=
EXTT0=
EXTT1=
EXTT2=
EXTT3=
EXTT4=
EXTT5=
EXTT6=
EXTT7=
EXTT8=
EXTT9=
PLAYORDER=
